# File generated by ImageToStl.com - Free Image and 3D model conversion tools

mtllib burners.mtl

o obj1
v 0.004418 -0.019678 3.6E-05
v 0.003546 -0.009678 -0.000678
v 0.00529 -0.009678 -0.000678
v 0.00529 -0.009678 0.000749
v 0.003546 -0.009678 0.000749
v 0.004418 -0.009678 3.6E-05
v -0.004487 -0.019678 3.6E-05
v -0.005359 -0.009678 -0.000678
v -0.003616 -0.009678 -0.000678
v -0.003616 -0.009678 0.000749
v -0.005359 -0.009678 0.000749
v -0.004487 -0.009678 3.6E-05
vn 0 -0.31604 0
vn -0.99622 1.84198 -0.99746
vn 0.99622 1.84198 -0.99746
vn 0.99622 1.84198 0.99746
vn -0.99622 1.84198 0.99746
vn 0 4 0
vt 0.91771 0.9995
vt 0.83593 0.0005
vt 0.9995 0.0005
vt 0.91772 0.0005
vt 0.08228 0.9995
vt 0.0005 0.0005
vt 0.16407 0.0005
vt 0.08228 0.0005
usemtl mat0
f 1/1/1 2/2/2 3/3/3
f 1/1/1 3/3/3 4/3/4
f 1/1/1 4/3/4 5/2/5
f 1/1/1 5/2/5 2/2/2
f 2/2/2 6/4/6 3/3/3
f 3/3/3 6/4/6 4/3/4
f 4/3/4 6/4/6 5/2/5
f 5/2/5 6/4/6 2/2/2
f 7/5/1 8/6/2 9/7/3
f 7/5/1 9/7/3 10/7/4
f 7/5/1 10/7/4 11/6/5
f 7/5/1 11/6/5 8/6/2
f 8/6/2 12/8/6 9/7/3
f 9/7/3 12/8/6 10/7/4
f 10/7/4 12/8/6 11/6/5
f 11/6/5 12/8/6 8/6/2
# Vertices: 12, normals: 6, texture coordinates: 8, faces: 16

